<svg version="1.1" xmlns="http://www.w3.org/2000/svg"  viewBox="0 0 256 256" enable-background="new 0 0 256 256" width="512" height="512" xml:space="preserve">
    <g>
        <g>
            <path fill= "white" d="M47.7,220.3h160.6c20.8,0,37.7-14.4,37.7-32.1V85.2c0-17.7-16.9-32.1-37.7-32.1H47.7C26.9,53.1,10,67.5,10,85.2v103.1C10,205.9,26.9,220.3,47.7,220.3z M29.7,85.2c0-8.5,8.1-15.3,18-15.3h160.6c9.9,0,18,6.9,18,15.3v103.1c0,8.5-8.1,15.3-18,15.3H47.7c-9.9,0-18-6.9-18-15.3V85.2z" />
            <path fill= "white" d="M19.8,47.7h106.6c0.5,0.1,1.1,0.1,1.6,0.1s1.1,0,1.6-0.1h106.6c5.4,0,9.8-4.4,9.8-9.8c0-5.4-4.4-9.8-9.8-9.8h-98.3v-7.6c0-5.4-4.4-9.8-9.8-9.8c-5.4,0-9.8,4.4-9.8,9.8v7.6H19.8c-5.4,0-9.8,4.4-9.8,9.8C10,43.3,14.4,47.7,19.8,47.7z" />
            <path fill= "white" d="M236.2,225.7H19.8c-5.4,0-9.8,4.4-9.8,9.8s4.4,9.8,9.8,9.8h216.3c5.4,0,9.8-4.4,9.8-9.8S241.6,225.7,236.2,225.7z" />
        </g>
    </g>
</svg>