<svg version="1.1" xmlns="http://www.w3.org/2000/svg"  viewBox="0 0 256 256" enable-background="new 0 0 256 256" width="512" height="512" xml:space="preserve">
    <g>
        <g>
            <path fill= "white" d="M128,10C62.8,10,10,62.8,10,128c0,65.2,52.8,118,118,118c65.2,0,118-52.8,118-118C246,62.8,193.1,10,128,10z M124,184.1c0,6.6-5.4,12-12,12H72.1c-6.6,0-12-5.4-12-12v-40c0-6.6,5.4-12,12-12h40c6.6,0,12,5.3,12,12L124,184.1L124,184.1z M124,111.8c0,6.6-5.4,12-12,12H72.1c-6.6,0-12-5.4-12-12V71.8c0-6.6,5.4-12,12-12h40c6.6,0,12,5.4,12,12L124,111.8L124,111.8L124,111.8z M195.9,184.1c0,6.6-5.4,12-12,12h-40c-6.6,0-12-5.4-12-12v-40c0-6.6,5.4-12,12-12h40c6.6,0,12,5.3,12,12V184.1z M163.9,123.7c-17.7,0-31.9-14.3-31.9-31.9c0-17.6,14.3-31.9,31.9-31.9c17.6,0,31.9,14.3,31.9,31.9C195.9,109.5,181.5,123.7,163.9,123.7z" />
        </g>
    </g>
</svg>