<?xml version="1.0"?>
<svg width="108" height="24" xmlns="http://www.w3.org/2000/svg" xmlns:svg="http://www.w3.org/2000/svg">
 <!-- Recall text paths with white fill -->
 <!-- AI circle remains blue -->
 <g class="layer">
  <title>Layer 1</title>
  <path d="m1.03,13.41c0.04,-1.17 0.33,-2.21 0.87,-3.13c0.55,-0.94 1.28,-1.67 2.17,-2.21c0.91,-0.54 1.91,-0.8 2.99,-0.8c0.94,0 1.66,0.14 2.14,0.43c0.51,0.28 0.69,0.68 0.56,1.17c-0.05,0.27 -0.17,0.46 -0.36,0.58c-0.17,0.11 -0.37,0.17 -0.61,0.17c-0.23,0 -0.49,-0.02 -0.79,-0.06c-1.09,-0.13 -2.07,-0.06 -2.92,0.23c-0.84,0.27 -1.51,0.72 -2.01,1.35c-0.5,0.63 -0.76,1.39 -0.76,2.27l-1.28,0zm0.14,9.72c-0.37,0 -0.66,-0.11 -0.86,-0.32c-0.21,-0.21 -0.31,-0.5 -0.31,-0.89l0,-13.28c0,-0.38 0.1,-0.67 0.31,-0.89c0.2,-0.21 0.49,-0.31 0.86,-0.31c0.37,0 0.65,0.1 0.84,0.31c0.2,0.22 0.3,0.51 0.3,0.89l0,13.28c0,0.39 -0.1,0.68 -0.3,0.89c-0.19,0.21 -0.47,0.32 -0.84,0.32zm17.73,0.14c-1.52,0 -2.87,-0.33 -4.04,-1c-1.17,-0.69 -2.09,-1.64 -2.76,-2.84c-0.67,-1.21 -1.01,-2.58 -1.01,-4.13c0,-1.57 0.32,-2.95 0.95,-4.13c0.63,-1.21 1.5,-2.15 2.6,-2.84c1.11,-0.69 2.39,-1.03 3.85,-1.03c1.41,0 2.64,0.33 3.68,1c1.06,0.65 1.87,1.56 2.42,2.72c0.58,1.17 0.87,2.5 0.87,3.99c0,0.33 -0.1,0.59 -0.31,0.8c-0.2,0.2 -0.46,0.29 -0.78,0.29l-11.66,0l0,-1.98l11.8,0l-1.2,0.86c0.02,-1.05 -0.17,-2 -0.56,-2.84c-0.39,-0.84 -0.95,-1.5 -1.67,-1.98c-0.73,-0.47 -1.59,-0.71 -2.59,-0.71c-1.06,0 -1.99,0.25 -2.79,0.74c-0.79,0.5 -1.39,1.2 -1.82,2.1c-0.41,0.88 -0.61,1.88 -0.61,3.01c0,1.13 0.24,2.13 0.72,3.01c0.49,0.88 1.15,1.57 1.98,2.07c0.86,0.49 1.84,0.74 2.93,0.74c0.64,0 1.28,-0.11 1.93,-0.34c0.67,-0.23 1.2,-0.52 1.59,-0.86c0.22,-0.18 0.47,-0.26 0.75,-0.26c0.3,-0.02 0.54,0.06 0.73,0.23c0.27,0.25 0.41,0.51 0.41,0.8c0.02,0.29 -0.1,0.54 -0.36,0.75c-0.61,0.53 -1.39,0.97 -2.34,1.32c-0.95,0.34 -1.85,0.51 -2.71,0.51zm16.48,0c-1.47,0 -2.78,-0.34 -3.93,-1.03c-1.16,-0.71 -2.07,-1.66 -2.74,-2.87c-0.65,-1.2 -0.97,-2.56 -0.97,-4.07c0,-1.53 0.31,-2.9 0.94,-4.1c0.65,-1.21 1.53,-2.15 2.63,-2.84c1.11,-0.71 2.39,-1.06 3.84,-1.06c1.12,0 2.15,0.23 3.1,0.68c0.95,0.44 1.79,1.11 2.51,2.01c0.22,0.27 0.3,0.55 0.22,0.83c-0.05,0.27 -0.22,0.51 -0.5,0.72c-0.22,0.15 -0.47,0.21 -0.75,0.17c-0.26,-0.05 -0.5,-0.21 -0.73,-0.46c-1.02,-1.18 -2.3,-1.77 -3.85,-1.77c-1.02,0 -1.92,0.24 -2.7,0.74c-0.76,0.5 -1.36,1.19 -1.79,2.07c-0.42,0.86 -0.64,1.86 -0.64,3.01c0,1.11 0.23,2.1 0.67,2.98c0.47,0.86 1.1,1.55 1.9,2.07c0.82,0.49 1.75,0.74 2.79,0.74c0.7,0 1.34,-0.09 1.89,-0.28c0.58,-0.2 1.09,-0.49 1.54,-0.89c0.26,-0.21 0.52,-0.33 0.78,-0.35c0.26,-0.02 0.5,0.06 0.72,0.23c0.25,0.23 0.39,0.49 0.42,0.78c0.04,0.28 -0.05,0.54 -0.28,0.77c-1.35,1.28 -3.05,1.92 -5.07,1.92zm16.42,0c-1.42,0 -2.68,-0.34 -3.8,-1.03c-1.11,-0.71 -2,-1.66 -2.65,-2.87c-0.65,-1.2 -0.97,-2.56 -0.97,-4.07c0,-1.53 0.33,-2.9 1,-4.1c0.69,-1.21 1.62,-2.15 2.79,-2.84c1.17,-0.71 2.49,-1.06 3.96,-1.06c1.45,0 2.75,0.35 3.91,1.06c1.17,0.69 2.09,1.63 2.76,2.84c0.69,1.2 1.04,2.57 1.06,4.1l-0.95,0.49c0,1.41 -0.32,2.68 -0.95,3.81c-0.61,1.13 -1.46,2.03 -2.54,2.7c-1.06,0.65 -2.27,0.97 -3.62,0.97zm0.33,-2.18c1.04,0 1.96,-0.25 2.76,-0.74c0.82,-0.52 1.46,-1.22 1.93,-2.1c0.48,-0.88 0.72,-1.86 0.72,-2.95c0,-1.11 -0.24,-2.1 -0.72,-2.96c-0.47,-0.88 -1.11,-1.57 -1.93,-2.09c-0.8,-0.52 -1.72,-0.77 -2.76,-0.77c-1.02,0 -1.95,0.25 -2.79,0.77c-0.82,0.52 -1.47,1.21 -1.95,2.09c-0.48,0.86 -0.73,1.85 -0.73,2.96c0,1.09 0.25,2.07 0.73,2.95c0.48,0.88 1.13,1.58 1.95,2.1c0.84,0.49 1.77,0.74 2.79,0.74zm6.53,2.04c-0.34,0 -0.62,-0.11 -0.87,-0.32c-0.22,-0.23 -0.33,-0.52 -0.33,-0.89l0,-4.73l0.53,-2.49l1.87,0.6l0,6.62c0,0.37 -0.11,0.66 -0.34,0.89c-0.22,0.21 -0.51,0.32 -0.86,0.32zm8.78,0c-0.78,0 -1.47,-0.21 -2.07,-0.63c-0.59,-0.44 -1.06,-1.04 -1.39,-1.81c-0.34,-0.76 -0.5,-1.64 -0.5,-2.64l0,-16.12c0,-0.36 0.1,-0.65 0.3,-0.86c0.23,-0.23 0.52,-0.34 0.87,-0.34c0.33,0 0.6,0.11 0.81,0.34c0.22,0.21 0.33,0.5 0.33,0.86l0,16.12c0,0.79 0.15,1.44 0.45,1.95c0.31,0.5 0.71,0.75 1.2,0.75l0.7,0c0.29,0 0.53,0.11 0.72,0.34c0.19,0.21 0.28,0.49 0.28,0.83c0,0.37 -0.14,0.66 -0.42,0.89c-0.26,0.21 -0.6,0.32 -1.03,0.32l-0.25,0zm8.03,0c-0.78,0 -1.47,-0.21 -2.06,-0.63c-0.6,-0.44 -1.06,-1.04 -1.4,-1.81c-0.33,-0.76 -0.5,-1.64 -0.5,-2.64l0,-16.12c0,-0.36 0.1,-0.65 0.31,-0.86c0.22,-0.23 0.51,-0.34 0.86,-0.34c0.34,0 0.61,0.11 0.81,0.34c0.23,0.21 0.34,0.5 0.34,0.86l0,16.12c0,0.79 0.15,1.44 0.44,1.95c0.32,0.5 0.72,0.75 1.2,0.75l0.7,0c0.3,0 0.54,0.11 0.72,0.34c0.19,0.21 0.28,0.49 0.28,0.83c0,0.37 -0.14,0.66 -0.41,0.89c-0.26,0.21 -0.61,0.32 -1.04,0.32l-0.25,0z" fill="white" id="svg_1" style="--darkreader-inline-fill: var(--darkreader-background-ffffff, #181a1b);"/>
  <path d="m96.25,24c6.48,0 11.73,-5.37 11.73,-12c0,-6.63 -5.25,-12 -11.73,-12c-6.48,0 -11.74,5.37 -11.74,12c0,6.63 5.26,12 11.74,12z" fill="#0D6EFD" id="svg_2" style="--darkreader-inline-fill: var(--darkreader-text-0d6efd, #2394fd);"/>
 </g>
</svg>